Coordinates
version=1
nRows=29
nColumns=22
inDegrees=yes

Units are S.I. units (second, meters, Newtons, ...)
If the header above contains a line with 'inDegrees', this indicates whether rotational values are in degrees (yes) or radians (no).

endheader
time	pelvis_tilt	pelvis_list	pelvis_rotation	pelvis_tx	pelvis_ty	pelvis_tz	hip_flexion_r	hip_adduction_r	hip_rotation_r	knee_angle_r	ankle_angle_r	subtalar_angle_r	hip_flexion_l	hip_adduction_l	hip_rotation_l	knee_angle_l	ankle_angle_l	subtalar_angle_l	lumbar_extension	lumbar_bending	lumbar_rotation
      0.01000000	      2.59005713	     -0.27610100	      0.04911318	     -1.73856172	      1.08376949	     -0.34041978	     -2.25414875	      0.51184299	     -2.46606592	    -11.95755882	     11.48702820	     -2.41235276	     -2.01495639	      0.59671587	     -0.66069537	    -12.18997875	     12.36736445	     -1.24079638	     -4.10376598	     -1.18897279	     -6.26845592
      0.02000000	      2.59546267	     -0.27547315	      0.05085213	     -1.73858678	      1.08378244	     -0.34027351	     -2.25567058	      0.52013794	     -2.46334517	    -11.96300445	     11.48605874	     -2.41305026	     -2.01622239	      0.58912253	     -0.65913405	    -12.19491464	     12.36702035	     -1.24058382	     -4.10062242	     -1.19901115	     -6.26740264
      0.03000000	      2.61504212	     -0.29394493	      0.04791693	     -1.73866924	      1.08381038	     -0.34009897	     -2.26364916	      0.55132522	     -2.43178598	    -11.97892472	     11.47658381	     -2.43315124	     -2.01858283	      0.55903399	     -0.66905966	    -12.22209855	     12.37915873	     -1.23336076	     -4.12403466	     -1.18656307	     -6.24604202
      0.04000000	      2.62541818	     -0.29276048	      0.05529161	     -1.73872700	      1.08382964	     -0.33992664	     -2.26695299	      0.56160985	     -2.42196102	    -11.98851211	     11.47292884	     -2.43688863	     -2.01693713	      0.54998601	     -0.66055547	    -12.23848650	     12.37766092	     -1.23095610	     -4.13038430	     -1.19960112	     -6.23459465
      0.05000000	      2.63379369	     -0.29224692	      0.06856626	     -1.73877833	      1.08384754	     -0.33975476	     -2.26973556	      0.57317576	     -2.41526015	    -11.99637627	     11.47191594	     -2.43870409	     -2.01624171	      0.53874190	     -0.65554852	    -12.24714143	     12.37713943	     -1.22958558	     -4.13304599	     -1.21302253	     -6.22515936
      0.06000000	      2.64681702	     -0.29494476	      0.08220708	     -1.73882632	      1.08387090	     -0.33958728	     -2.27844558	      0.58851375	     -2.40805461	    -12.00368228	     11.47136173	     -2.44189201	     -2.01633651	      0.52550416	     -0.63991846	    -12.26638242	     12.37679433	     -1.22580547	     -4.13896877	     -1.22193988	     -6.20895143
      0.07000000	      2.65931348	     -0.29906893	      0.10502921	     -1.73886117	      1.08389531	     -0.33942954	     -2.29246077	      0.60567971	     -2.40728495	    -12.00250865	     11.47066132	     -2.44451378	     -2.01985553	      0.50933800	     -0.62038900	    -12.27720635	     12.37861576	     -1.21929962	     -4.14364025	     -1.23150373	     -6.19585982
      0.08000000	      2.67990686	     -0.30537790	      0.14649079	     -1.73887462	      1.08393881	     -0.33930298	     -2.32312811	      0.62587771	     -2.42730682	    -11.99009598	     11.46215515	     -2.44534879	     -2.03871808	      0.49088175	     -0.57754398	    -12.27469232	     12.38286628	     -1.19927066	     -4.15518081	     -1.23777307	     -6.20786809
      0.09000000	      2.68557544	     -0.30313462	      0.16886054	     -1.73888686	      1.08395555	     -0.33915915	     -2.32815369	      0.63525012	     -2.42492727	    -11.99586575	     11.46185885	     -2.44490778	     -2.04053867	      0.48121233	     -0.57739502	    -12.27576652	     12.38206047	     -1.19882986	     -4.14711507	     -1.25515740	     -6.19972380
      0.10000000	      2.69860608	     -0.30020916	      0.23032346	     -1.73890200	      1.08399237	     -0.33907729	     -2.35807143	      0.64479747	     -2.47310203	    -11.97183225	     11.45703524	     -2.43689454	     -2.04999625	      0.47406045	     -0.49917208	    -12.27340082	     12.36938573	     -1.17712067	     -4.15322572	     -1.27645607	     -6.20466287
      0.11000000	      2.70310197	     -0.29862314	      0.25651520	     -1.73890898	      1.08400834	     -0.33894974	     -2.36303405	      0.65468876	     -2.47179794	    -11.97674430	     11.45679302	     -2.43633415	     -2.05181937	      0.46358792	     -0.49974179	    -12.27288981	     12.36886788	     -1.17673738	     -4.14549949	     -1.29648536	     -6.19551296
      0.12000000	      2.71168968	     -0.28967664	      0.32722339	     -1.73890339	      1.08403804	     -0.33889992	     -2.39192209	      0.65623582	     -2.54569526	    -11.94878715	     11.44813309	     -2.42993463	     -2.06123016	      0.46380158	     -0.41104679	    -12.26303611	     12.35508334	     -1.15682699	     -4.14600052	     -1.32807435	     -6.20172760
      0.13000000	      2.71523813	     -0.28679998	      0.36364085	     -1.73890261	      1.08405105	     -0.33880537	     -2.40462080	      0.66441212	     -2.56460649	    -11.93824410	     11.45032532	     -2.42924389	     -2.06005790	      0.45607358	     -0.39569783	    -12.26673224	     12.35172992	     -1.15394268	     -4.14000552	     -1.35299215	     -6.17644377
      0.14000000	      2.71699441	     -0.28125548	      0.40656403	     -1.73888943	      1.08405998	     -0.33872909	     -2.41651695	      0.66862618	     -2.59965158	    -11.92671414	     11.44683483	     -2.43056154	     -2.06262948	      0.45208415	     -0.36210517	    -12.26101372	     12.34747607	     -1.14953136	     -4.13204224	     -1.38215962	     -6.15233053
      0.15000000	      2.72230895	     -0.26677181	      0.47064985	     -1.73887858	      1.08407382	     -0.33869853	     -2.42777771	      0.66214145	     -2.67113276	    -11.92660078	     11.43966443	     -2.44065498	     -2.07407699	      0.45968266	     -0.28799756	    -12.24259407	     12.33586575	     -1.13972201	     -4.13112007	     -1.41941394	     -6.16646234
      0.16000000	      2.72357677	     -0.26385421	      0.50743341	     -1.73886876	      1.08407304	     -0.33862725	     -2.43719440	      0.66923944	     -2.69190521	    -11.91761496	     11.44233783	     -2.44392459	     -2.07106156	      0.45319901	     -0.27263298	    -12.24737999	     12.33337106	     -1.13864465	     -4.12564217	     -1.44456211	     -6.13053433
      0.17000000	      2.72438214	     -0.24968277	      0.56054425	     -1.73885261	      1.08407077	     -0.33859125	     -2.43918932	      0.66206911	     -2.75638277	    -11.92477875	     11.44087600	     -2.46243602	     -2.07556098	      0.46093960	     -0.21338121	    -12.23511455	     12.32852411	     -1.13332738	     -4.12048530	     -1.48040204	     -6.11540508
      0.18000000	      2.72536590	     -0.24601860	      0.59745803	     -1.73883973	      1.08406509	     -0.33853363	     -2.44647454	      0.66738453	     -2.77742552	    -11.91998326	     11.44492405	     -2.46746859	     -2.06966051	      0.45640369	     -0.19352377	    -12.24463550	     12.32581690	     -1.13237443	     -4.11657926	     -1.50312884	     -6.07384932
      0.19000000	      2.72292389	     -0.23212503	      0.64740250	     -1.73883021	      1.08405268	     -0.33850218	     -2.43854100	      0.65966377	     -2.84038267	    -11.93817587	     11.45234093	     -2.48803580	     -2.06720097	      0.46483783	     -0.13505211	    -12.23841121	     12.32634979	     -1.12907070	     -4.11079720	     -1.53580049	     -6.05020795
      0.20000000	      2.72386014	     -0.22908862	      0.68297796	     -1.73882611	      1.08404497	     -0.33843922	     -2.44223482	      0.66627212	     -2.85591975	    -11.93838920	     11.45728736	     -2.49190992	     -2.05841356	      0.45949797	     -0.11565630	    -12.25158391	     12.32401646	     -1.12865889	     -4.11246823	     -1.55686173	     -6.00883646
      0.21000000	      2.72579275	     -0.22289183	      0.72042430	     -1.73880726	      1.08403662	     -0.33840963	     -2.44015618	      0.66597848	     -2.89002660	    -11.95432718	     11.46478587	     -2.49973840	     -2.05213684	      0.46102811	     -0.07720315	    -12.26450728	     12.32600813	     -1.12802652	     -4.11171475	     -1.57432361	     -5.96059255
      0.22000000	      2.71990725	     -0.20717358	      0.77329904	     -1.73880161	      1.08401465	     -0.33839722	     -2.41821391	      0.65452554	     -2.96057945	    -11.99232926	     11.48674060	     -2.52081187	     -2.04219394	      0.47289168	     -0.01374969	    -12.26372401	     12.33338062	     -1.12768799	     -4.10744902	     -1.60425994	     -5.94807541
      0.23000000	      2.72240942	     -0.20347594	      0.80809277	     -1.73878734	      1.08400934	     -0.33835625	     -2.41799955	      0.65835059	     -2.97517470	    -12.00399612	     11.49139163	     -2.52554883	     -2.03170543	      0.47060046	      0.01230339	    -12.28484382	     12.33043631	     -1.12760271	     -4.11184444	     -1.62006947	     -5.90859080
      0.24000000	      2.71862609	     -0.19185270	      0.85333683	     -1.73877291	      1.08398874	     -0.33833455	     -2.39687498	      0.65109601	     -3.03330359	    -12.04525125	     11.51024310	     -2.54241109	     -2.02171796	      0.47806243	      0.06605150	    -12.29035089	     12.33847608	     -1.12809899	     -4.11047051	     -1.64441924	     -5.88947517
      0.25000000	      2.72098298	     -0.18738522	      0.88767031	     -1.73875810	      1.08398213	     -0.33830308	     -2.39389900	      0.65294933	     -3.04742103	    -12.06234379	     11.51460910	     -2.54730766	     -2.01169554	      0.47714753	      0.09281956	    -12.31003385	     12.33615604	     -1.12768627	     -4.11828521	     -1.65910823	     -5.85524062
      0.26000000	      2.71679152	     -0.17434283	      0.93227240	     -1.73873318	      1.08396187	     -0.33828943	     -2.37265041	      0.64357280	     -3.10420878	    -12.10332380	     11.53349769	     -2.56344888	     -2.00409759	      0.48616255	      0.14153656	    -12.31156471	     12.34373463	     -1.12687888	     -4.11892091	     -1.68441394	     -5.84472352
      0.27000000	      2.71822273	     -0.17023301	      0.96373161	     -1.73870167	      1.08395403	     -0.33825748	     -2.36974009	      0.64558949	     -3.11654017	    -12.12030994	     11.53641784	     -2.56783382	     -1.99651720	      0.48511667	      0.16491617	    -12.32749286	     12.34200305	     -1.12647427	     -4.12655752	     -1.70015028	     -5.81532072
      0.28000000	      2.71780865	     -0.16392171	      0.99506144	     -1.73866266	      1.08394246	     -0.33822925	     -2.35981383	      0.64398538	     -3.14522467	    -12.14709385	     11.54345337	     -2.57440741	     -1.99385668	      0.48694966	      0.19433988	    -12.33222917	     12.34670872	     -1.12664192	     -4.13409157	     -1.71952123	     -5.78796303
      0.29000000	      2.71033784	     -0.14802259	      1.03649495	     -1.73861531	      1.08391856	     -0.33821828	     -2.34185854	      0.63088559	     -3.19924863	    -12.17814312	     11.56450396	     -2.58789181	     -1.98896497	      0.49907277	      0.23533832	    -12.32491279	     12.35206327	     -1.12837793	     -4.13381385	     -1.74982537	     -5.78781425
